<svg xmlns="http://www.w3.org/2000/svg" version="1.1" xmlns:xlink="http://www.w3.org/1999/xlink" xmlns:svgjs="http://svgjs.dev/svgjs" width="2000" height="1607" viewBox="0 0 2000 1607"><g transform="matrix(1,0,0,1,0,0)"><svg viewBox="0 0 448 360" data-background-color="#ffffff" preserveAspectRatio="xMidYMid meet" height="1607" width="2000" xmlns="http://www.w3.org/2000/svg" xmlns:xlink="http://www.w3.org/1999/xlink"><g id="tight-bounds" transform="matrix(1,0,0,1,0,0)"><svg viewBox="0 0 448 360" height="360" width="448"><g><svg></svg></g><g><svg viewBox="0 0 448 360" height="360" width="448"><g><path d="M193.855 44.683c1.378 0 2.494 1.116 2.495 2.494 0 1.378-1.116 2.494-2.495 2.495h-23.846l-17.167 17.167c-0.973 0.973-2.551 0.973-3.53 0-0.973-0.973-0.973-2.551 0-3.529l13.644-13.645h-40.378c-11.518 0-19.151 2.688-23.815 8.113-4.739 5.519-6.66 14.056-6.66 25.63 0 0.069 0 0.137-0.006 0.206l0.212 36.692 14.692-14.692c0.973-0.973 2.551-0.973 3.53 0 0.973 0.973 0.973 2.551 0 3.53l-18.178 18.178c0.206 35.832 0.193 71.358-0.013 107.19 25.486 25.2 50.617 50.312 75.811 75.791h25.38c1.378 0 2.494 1.116 2.495 2.495 0 1.378-1.116 2.494-2.495 2.494h-20.448l25.942 26.241 0.006-0.006c8.188 8.188 15.577 12.859 22.824 13.413 7.146 0.543 14.442-2.956 22.586-11.093l28.555-28.555h-20.722c-1.378 0-2.494-1.116-2.495-2.494 0-1.378 1.116-2.494 2.495-2.495h25.711l16.625-16.625c0.973-0.973 2.551-0.973 3.529 0 0.973 0.973 0.973 2.551 0 3.53l-13.101 13.102h40.377c11.518 0 19.151-2.688 23.815-8.113 4.739-5.519 6.66-14.056 6.66-25.63h0.013l-0.212-36.898-16.014 16.014c-0.973 0.973-2.551 0.973-3.53 0-0.973-0.973-0.973-2.551 0-3.53l19.5-19.5c-0.206-35.832-0.193-71.358 0.013-107.19-25.486-25.2-50.617-50.312-75.811-75.791h-26.147c-1.378 0-2.494-1.116-2.495-2.495 0-1.378 1.116-2.494 2.495-2.494h21.215l-25.824-26.123c-0.044-0.037-0.081-0.075-0.124-0.112-8.188-8.188-15.577-12.859-22.824-13.413-7.146-0.543-14.442 2.956-22.586 11.093l-28.555 28.555h18.858zM122.578 44.683h45.367l32.078-32.078c9.248-9.248 17.81-13.195 26.484-12.534 8.568 0.649 16.956 5.824 25.985 14.854 0.05 0.05 0.094 0.094 0.137 0.143l29.278 29.615h43.508c13.071 0 21.919 3.268 27.594 9.871 5.6 6.517 7.864 16.101 7.864 28.867 0 0.081-0.006 0.156-0.012 0.23l-0.225 39.742 28.43 28.112 0.006-0.006c9.03 9.03 14.206 17.411 14.854 25.985 0.661 8.674-3.293 17.236-12.534 26.484l-30.768 30.768 0.237 41.843h0.012c0 12.765-2.27 22.35-7.864 28.867-5.675 6.604-14.524 9.872-27.594 9.871h-45.366l-32.078 32.078c-9.248 9.248-17.81 13.195-26.484 12.534-8.568-0.649-16.956-5.824-25.985-14.854l0.006-0.006-29.421-29.758h-43.509c-13.071 0-21.919-3.268-27.594-9.872-5.6-6.517-7.864-16.101-7.863-28.866h0.012l0.231-39.972-28.293-27.969c-0.05-0.044-0.1-0.087-0.143-0.137-9.03-9.03-14.206-17.411-14.854-25.985-0.661-8.674 3.293-17.236 12.534-26.484l30.768-30.768-0.237-41.607c-0.006-0.075-0.012-0.156-0.012-0.23 0-12.765 2.27-22.35 7.864-28.867 5.675-6.604 14.524-9.872 27.594-9.871zM87.682 179.997l-0.274-47.724-27.276 27.276c-8.138 8.138-11.636 15.44-11.094 22.587 0.549 7.246 5.226 14.642 13.413 22.823 0.037 0.037 0.081 0.081 0.113 0.125l24.837 24.551 0.281-49.644zM92.303 241.483l-0.2 35.09h0.013c0 11.58 1.921 20.117 6.66 25.63 4.664 5.432 12.297 8.113 23.815 8.113h38.576l-33.55-33.936-35.308-34.903zM325.415 49.672h-38.575l33.549 33.936 35.308 34.902 0.2-34.884c-0.006-0.069-0.006-0.137-0.007-0.205 0-11.58-1.921-20.117-6.66-25.63-4.664-5.432-12.297-8.113-23.815-8.113zM360.599 130.352l-0.281 49.645 0.274 47.724 27.276-27.276c8.138-8.138 11.636-15.44 11.094-22.587-0.549-7.252-5.226-14.642-13.413-22.824l0.006-0.006-24.956-24.669z" fill="#0074d9" fill-rule="nonzero" stroke="none" stroke-width="1" stroke-linecap="butt" stroke-linejoin="miter" stroke-miterlimit="10" stroke-dasharray="" stroke-dashoffset="0" font-family="none" font-weight="none" font-size="none" text-anchor="none" style="mix-blend-mode: normal" data-fill-palette-color="tertiary"></path></g><g transform="matrix(1,0,0,1,112,116)"><svg viewBox="0 0 224 127.99999999999999" height="127.99999999999999" width="224"><g><svg viewBox="0 0 224 127.99999999999999" height="127.99999999999999" width="224"><g><svg viewBox="0 0 224 127.99999999999999" height="127.99999999999999" width="224"><g><svg viewBox="0 0 224 127.99999999999999" height="127.99999999999999" width="224"><g id="textblocktransform"><svg viewBox="0 0 224 127.99999999999999" height="127.99999999999999" width="224" id="textblock"><g><svg viewBox="0 0 224 127.99999999999999" height="127.99999999999999" width="224"><g transform="matrix(1,0,0,1,0,0)"><svg width="224" viewBox="4.15 -35 61.949999999999996 35.4" height="127.99999999999999" data-palette-color="#77d4fc"><path d="M32.3 0L24.85 0Q23.55-2 21.85-4.2 20.15-6.4 18.28-8.45 16.4-10.5 14.4-12.35 12.4-14.2 10.45-15.55L10.45-15.55 10.45 0 4.15 0 4.15-34.65 10.45-34.65 10.45-20.35Q12.1-22 13.9-23.88 15.7-25.75 17.48-27.68 19.25-29.6 20.85-31.4 22.45-33.2 23.75-34.65L23.75-34.65 31.3-34.65Q29.65-32.75 27.8-30.7 25.95-28.65 24-26.58 22.05-24.5 20.08-22.45 18.1-20.4 16.2-18.55L16.2-18.55Q18.3-16.95 20.48-14.83 22.65-12.7 24.75-10.28 26.85-7.85 28.78-5.23 30.7-2.6 32.3 0L32.3 0ZM43-29.4L43-5.2Q43.55-5.15 44.45-5.13 45.35-5.1 46.9-5.1L46.9-5.1Q53.25-5.1 56.37-8.33 59.5-11.55 59.5-17.35L59.5-17.35Q59.5-23.25 56.45-26.4 53.4-29.55 47-29.55L47-29.55Q44.2-29.55 43-29.4L43-29.4ZM66.1-17.35L66.1-17.35Q66.1-12.85 64.7-9.53 63.3-6.2 60.72-3.98 58.15-1.75 54.52-0.68 50.9 0.4 46.5 0.4L46.5 0.4Q44.4 0.4 41.75 0.23 39.1 0.05 36.7-0.5L36.7-0.5 36.7-34.15Q39.1-34.7 41.8-34.85 44.5-35 46.6-35L46.6-35Q50.95-35 54.55-33.98 58.15-32.95 60.72-30.78 63.3-28.6 64.7-25.28 66.1-21.95 66.1-17.35Z" opacity="1" transform="matrix(1,0,0,1,0,0)" fill="#77d4fc" class="wordmark-text-0" data-fill-palette-color="primary" id="text-0"></path></svg></g></svg></g></svg></g></svg></g><g></g></svg></g></svg></g></svg></g></svg></g><defs></defs></svg><rect width="448" height="360" fill="none" stroke="none" visibility="hidden"></rect></g></svg></g></svg>